<mxfile host="65bd71144e">
    <diagram id="O0IyG7GbrOrxVOCrT2lb" name="Page-1">
        <mxGraphModel dx="1447" dy="2341" grid="1" gridSize="10" guides="1" tooltips="1" connect="1" arrows="1" fold="1" page="1" pageScale="1" pageWidth="827" pageHeight="1169" math="0" shadow="0">
            <root>
                <mxCell id="0"/>
                <mxCell id="1" parent="0"/>
                <mxCell id="9" value="Sistema de Gestão de Pedidos e Contratos" style="shape=folder;fontStyle=1;tabWidth=290;tabHeight=30;tabPosition=left;html=1;boundedLbl=1;labelInHeader=1;container=1;collapsible=0;recursiveResize=0;" vertex="1" parent="1">
                    <mxGeometry x="340" y="-20" width="1530" height="860" as="geometry"/>
                </mxCell>
                <mxCell id="2" value="Sistema de autenticação" style="shape=folder;fontStyle=1;tabWidth=170;tabHeight=30;tabPosition=left;html=1;boundedLbl=1;labelInHeader=1;container=1;collapsible=0;recursiveResize=0;" vertex="1" parent="9">
                    <mxGeometry x="30" y="60" width="240" height="130" as="geometry"/>
                </mxCell>
                <mxCell id="5" value="Sistema de pedidos de aluguel" style="shape=folder;fontStyle=1;tabWidth=220;tabHeight=30;tabPosition=left;html=1;boundedLbl=1;labelInHeader=1;container=1;collapsible=0;recursiveResize=0;" vertex="1" parent="9">
                    <mxGeometry x="30" y="230" width="1040" height="370" as="geometry"/>
                </mxCell>
                <mxCell id="12" value="Análise de pedidos" style="shape=folder;fontStyle=1;tabWidth=170;tabHeight=30;tabPosition=left;html=1;boundedLbl=1;labelInHeader=1;container=1;collapsible=0;recursiveResize=0;" vertex="1" parent="5">
                    <mxGeometry x="30" y="200" width="240" height="130" as="geometry"/>
                </mxCell>
                <mxCell id="17" value="Análise financeira de pedidos" style="shape=folder;fontStyle=1;tabWidth=200;tabHeight=30;tabPosition=left;html=1;boundedLbl=1;labelInHeader=1;container=1;collapsible=0;recursiveResize=0;" vertex="1" parent="5">
                    <mxGeometry x="310" y="200" width="290" height="130" as="geometry"/>
                </mxCell>
                <mxCell id="18" value="Gestão de pedidos para clientes" style="shape=folder;fontStyle=1;tabWidth=220;tabHeight=30;tabPosition=left;html=1;boundedLbl=1;labelInHeader=1;container=1;collapsible=0;recursiveResize=0;" vertex="1" parent="5">
                    <mxGeometry x="30" y="50" width="270" height="130" as="geometry"/>
                </mxCell>
                <mxCell id="16" value="Sistema de contratos" style="shape=folder;fontStyle=1;tabWidth=170;tabHeight=30;tabPosition=left;html=1;boundedLbl=1;labelInHeader=1;container=1;collapsible=0;recursiveResize=0;" vertex="1" parent="9">
                    <mxGeometry x="30" y="640" width="240" height="130" as="geometry"/>
                </mxCell>
                <mxCell id="10" value="Sistema WEB" style="shape=folder;fontStyle=1;tabWidth=110;tabHeight=30;tabPosition=left;html=1;boundedLbl=1;labelInHeader=1;container=1;collapsible=0;recursiveResize=0;" vertex="1" parent="1">
                    <mxGeometry x="-70" width="360" height="190" as="geometry"/>
                </mxCell>
            </root>
        </mxGraphModel>
    </diagram>
</mxfile>